<?xml version="1.0" encoding="UTF-8" standalone="no"?>
<!DOCTYPE svg PUBLIC "-//W3C//DTD SVG 1.1//EN" "http://www.w3.org/Graphics/SVG/1.1/DTD/svg11.dtd">
<svg width="100%" height="100%" viewBox="0 0 1134 142" version="1.1" xmlns="http://www.w3.org/2000/svg" xmlns:xlink="http://www.w3.org/1999/xlink" xml:space="preserve" xmlns:serif="http://www.serif.com/" style="fill-rule:evenodd;clip-rule:evenodd;stroke-linecap:round;stroke-linejoin:round;stroke-miterlimit:1.5;">
    <rect id="Artboard1" x="0" y="0" width="1133.86" height="141.732" style="fill:none;"/>
    <g id="Artboard11" serif:id="Artboard1">
        <g transform="matrix(1,0,0,1.35656,-70.0142,-31.388)">
            <path d="M127.372,34.011L147.35,34.011L147.35,42.435L564.856,42.435L564.856,36.686L582.23,36.686L582.23,45.079L645.245,45.079L645.245,36.686L662.027,36.686L662.027,42.435L756.354,42.435L756.354,36.686L767.61,36.686L767.61,42.435L776.035,42.435L776.035,36.686L787.296,36.686L787.296,42.435L795.898,42.435L795.898,36.686L807.122,36.686L807.122,42.435L948.516,42.435L853.515,108.321L807.122,108.321L807.122,113.969L795.898,113.969L795.898,108.321L787.296,108.321L787.296,113.969L776.035,113.969L776.035,108.321L767.61,108.321L767.61,113.969L756.354,113.969L756.354,108.321L662.027,108.321L662.027,113.969L645.245,113.969L645.245,105.546L582.23,105.546L582.23,113.969L564.856,113.969L564.856,108.321L147.35,108.321L147.35,116.744L127.372,116.744L98.255,101.909L98.255,48.859L127.372,34.011Z" style="fill:none;stroke:rgb(0,6,255);stroke-width:1.68px;"/>
        </g>
    </g>
</svg>
